<svg width="24" height="25" viewBox="0 0 24 25" fill="none" xmlns="http://www.w3.org/2000/svg">
<path d="M1.5 6.58917H4.24764L5.07067 10.2554L6.84695 18.166H19.6625L21.7791 10.9971" stroke="white" stroke-width="2" stroke-linecap="round" stroke-linejoin="round"/>
<path d="M9.25906 22.5C10.0085 22.5 10.616 21.8925 10.616 21.1431C10.616 20.3936 10.0085 19.7861 9.25906 19.7861C8.50963 19.7861 7.9021 20.3936 7.9021 21.1431C7.9021 21.8925 8.50963 22.5 9.25906 22.5Z" fill="white"/>
<path d="M17.7903 22.5C18.5397 22.5 19.1472 21.8925 19.1472 21.1431C19.1472 20.3936 18.5397 19.7861 17.7903 19.7861C17.0408 19.7861 16.4333 20.3936 16.4333 21.1431C16.4333 21.8925 17.0408 22.5 17.7903 22.5Z" fill="white"/>
<path d="M13.5493 4.5V12.4634" stroke="white" stroke-width="2" stroke-linecap="round"/>
<path d="M17.531 8.48175H9.56714" stroke="white" stroke-width="2" stroke-linecap="round"/>
</svg>
