<svg width="12" height="12" viewBox="0 0 12 12" fill="none" xmlns="http://www.w3.org/2000/svg">
<g clip-path="url(#clip0_10796_21986)">
<path d="M6.37425 5.625C6.37425 5.52554 6.33474 5.43016 6.26441 5.35984C6.19409 5.28951 6.09871 5.25 5.99925 5.25C5.89979 5.25 5.80441 5.28951 5.73409 5.35984C5.66376 5.43016 5.62425 5.52554 5.62425 5.625V7.875C5.62425 7.97446 5.66376 8.06984 5.73409 8.14017C5.80441 8.21049 5.89979 8.25 5.99925 8.25C6.09871 8.25 6.19409 8.21049 6.26441 8.14017C6.33474 8.06984 6.37425 7.97446 6.37425 7.875V5.625ZM6.56175 4.125C6.56175 4.27408 6.50253 4.41706 6.39711 4.52248C6.29169 4.6279 6.14871 4.68712 5.99962 4.68712C5.85054 4.68712 5.70756 4.6279 5.60214 4.52248C5.49672 4.41706 5.4375 4.27408 5.4375 4.125C5.4375 3.97601 5.49668 3.83313 5.60203 3.72778C5.70738 3.62243 5.85026 3.56325 5.99925 3.56325C6.14824 3.56325 6.29112 3.62243 6.39647 3.72778C6.50182 3.83313 6.56175 3.97601 6.56175 4.125ZM6 0.75C4.60761 0.75 3.27226 1.30312 2.28769 2.28769C1.30312 3.27226 0.75 4.60761 0.75 6C0.75 7.39239 1.30312 8.72774 2.28769 9.71231C3.27226 10.6969 4.60761 11.25 6 11.25C7.39239 11.25 8.72774 10.6969 9.71231 9.71231C10.6969 8.72774 11.25 7.39239 11.25 6C11.25 4.60761 10.6969 3.27226 9.71231 2.28769C8.72774 1.30312 7.39239 0.75 6 0.75ZM1.5 6C1.5 5.40905 1.6164 4.82389 1.84254 4.27792C2.06869 3.73196 2.40016 3.23588 2.81802 2.81802C3.23588 2.40016 3.73196 2.06869 4.27792 1.84254C4.82389 1.6164 5.40905 1.5 6 1.5C6.59095 1.5 7.17611 1.6164 7.72208 1.84254C8.26804 2.06869 8.76412 2.40016 9.18198 2.81802C9.59984 3.23588 9.93131 3.73196 10.1575 4.27792C10.3836 4.82389 10.5 5.40905 10.5 6C10.5 7.19347 10.0259 8.33807 9.18198 9.18198C8.33807 10.0259 7.19347 10.5 6 10.5C4.80653 10.5 3.66193 10.0259 2.81802 9.18198C1.97411 8.33807 1.5 7.19347 1.5 6Z" fill="#8F8F8F"/>
</g>
<defs>
<clipPath id="clip0_10796_21986">
<rect width="12" height="12" fill="white"/>
</clipPath>
</defs>
</svg>
