<svg width="12" height="12" viewBox="0 0 12 12" fill="none" xmlns="http://www.w3.org/2000/svg">
<path d="M7 8.00047C7 8.88547 6.615 9.68547 6 10.2305C5.47 10.7105 4.77 11.0005 4 11.0005C2.345 11.0005 1 9.65547 1 8.00047C1 6.62047 1.94 5.45047 3.21 5.10547C3.555 5.97547 4.295 6.64547 5.21 6.89547C5.46 6.96547 5.725 7.00047 6 7.00047C6.275 7.00047 6.54 6.96547 6.79 6.89547C6.925 7.23547 7 7.61047 7 8.00047Z" stroke="#292D32" stroke-linecap="round" stroke-linejoin="round"/>
<path d="M9 4C9 4.39 8.925 4.765 8.79 5.105C8.445 5.975 7.705 6.645 6.79 6.895C6.54 6.965 6.275 7 6 7C5.725 7 5.46 6.965 5.21 6.895C4.295 6.645 3.555 5.975 3.21 5.105C3.075 4.765 3 4.39 3 4C3 2.345 4.345 1 6 1C7.655 1 9 2.345 9 4Z" stroke="#292D32" stroke-linecap="round" stroke-linejoin="round"/>
<path d="M11 8.00047C11 9.65547 9.655 11.0005 8 11.0005C7.23 11.0005 6.53 10.7105 6 10.2305C6.615 9.68547 7 8.88547 7 8.00047C7 7.61047 6.925 7.23547 6.79 6.89547C7.705 6.64547 8.445 5.97547 8.79 5.10547C10.06 5.45047 11 6.62047 11 8.00047Z" stroke="#292D32" stroke-linecap="round" stroke-linejoin="round"/>
</svg>
