<svg width="12" height="12" viewBox="0 0 12 12" fill="none" xmlns="http://www.w3.org/2000/svg">
<path d="M5.25 3C4.50832 3 3.7833 3.21993 3.16661 3.63199C2.54993 4.04404 2.06928 4.62971 1.78545 5.31494C1.50162 6.00016 1.42736 6.75416 1.57206 7.48159C1.71675 8.20902 2.0739 8.8772 2.59835 9.40165C3.1228 9.9261 3.79098 10.2833 4.51841 10.4279C5.24584 10.5726 5.99984 10.4984 6.68506 10.2145C7.37029 9.93072 7.95596 9.45007 8.36801 8.83339C8.78007 8.2167 9 7.49168 9 6.75H5.25V3Z" stroke="black" stroke-linecap="round" stroke-linejoin="round"/>
<path d="M6.75 5.25H10.5C10.5 4.25544 10.1049 3.30161 9.40165 2.59835C8.69839 1.89509 7.74456 1.5 6.75 1.5V5.25Z" stroke="black" stroke-linecap="round" stroke-linejoin="round"/>
</svg>
