<svg width="12" height="12" viewBox="0 0 12 12" fill="none" xmlns="http://www.w3.org/2000/svg">
<path d="M6.50477 1.46016L9.45477 2.77016C10.3048 3.14516 10.3048 3.76516 9.45477 4.14016L6.50477 5.45016C6.16977 5.60016 5.61977 5.60016 5.28477 5.45016L2.33477 4.14016C1.48477 3.76516 1.48477 3.14516 2.33477 2.77016L5.28477 1.46016C5.61977 1.31016 6.16977 1.31016 6.50477 1.46016Z" stroke="#292D32" stroke-linecap="round" stroke-linejoin="round"/>
<path d="M1.5 5.5C1.5 5.92 1.815 6.405 2.2 6.575L5.595 8.085C5.855 8.2 6.15 8.2 6.405 8.085L9.8 6.575C10.185 6.405 10.5 5.92 10.5 5.5" stroke="#292D32" stroke-linecap="round" stroke-linejoin="round"/>
<path d="M1.5 8C1.5 8.465 1.775 8.885 2.2 9.075L5.595 10.585C5.855 10.7 6.15 10.7 6.405 10.585L9.8 9.075C10.225 8.885 10.5 8.465 10.5 8" stroke="#292D32" stroke-linecap="round" stroke-linejoin="round"/>
</svg>
