<svg width="13" height="13" viewBox="0 0 13 13" fill="none" xmlns="http://www.w3.org/2000/svg">
<g clip-path="url(#clip0_10476_20533)">
<path d="M6.5 0C4.77648 0 3.12203 0.685242 1.9043 1.90379C0.685306 3.12282 0.000337665 4.77606 0 6.5C0 8.22321 0.685547 9.87766 1.9043 11.0962C3.12203 12.3148 4.77648 13 6.5 13C8.22352 13 9.87797 12.3148 11.0957 11.0962C12.3145 9.87766 13 8.22321 13 6.5C13 4.77679 12.3145 3.12234 11.0957 1.90379C9.87797 0.685242 8.22352 0 6.5 0Z" fill="url(#paint0_linear_10476_20533)"/>
<path d="M2.94221 6.43152C4.83736 5.60602 6.1008 5.06175 6.73252 4.7988C8.5383 4.04795 8.91307 3.91754 9.15783 3.91312C9.21166 3.91226 9.3315 3.92557 9.40971 3.98879C9.47471 4.04211 9.49299 4.11422 9.50213 4.16485C9.51025 4.21543 9.52143 4.3307 9.51229 4.42068C9.41479 5.4485 8.99127 7.94267 8.77596 9.09388C8.68557 9.58097 8.5058 9.74428 8.33213 9.76023C7.95432 9.79496 7.66791 9.51079 7.30229 9.27121C6.73049 8.89614 6.40752 8.66275 5.85197 8.29682C5.2101 7.87391 5.6265 7.64143 5.99213 7.26159C6.0876 7.16216 7.75119 5.64939 7.78268 5.51218C7.78674 5.49501 7.7908 5.43103 7.75221 5.39731C7.71463 5.36349 7.65877 5.37507 7.61815 5.38421C7.56026 5.39721 6.64721 6.0013 4.87596 7.19639C4.61697 7.37453 4.38236 7.46136 4.17111 7.45679C3.93955 7.45182 3.49268 7.32557 3.16057 7.21771C2.75432 7.08538 2.43033 7.0154 2.45877 6.79064C2.47299 6.67364 2.63447 6.5539 2.94221 6.43152Z" fill="white"/>
</g>
<defs>
<linearGradient id="paint0_linear_10476_20533" x1="650" y1="0" x2="650" y2="1300" gradientUnits="userSpaceOnUse">
<stop stop-color="#2AABEE"/>
<stop offset="1" stop-color="#229ED9"/>
</linearGradient>
<clipPath id="clip0_10476_20533">
<rect width="13" height="13" fill="white"/>
</clipPath>
</defs>
</svg>
