<svg width="16" height="16" viewBox="0 0 16 16" fill="none" xmlns="http://www.w3.org/2000/svg">
<g clip-path="url(#clip0_10476_20434)">
<path d="M0.341719 7.90452C0.341344 9.24883 0.695344 10.5615 1.36847 11.7184L0.277344 15.6714L4.35434 14.6107C5.48199 15.2198 6.74543 15.539 8.02934 15.5391H8.03272C12.2712 15.5391 15.7213 12.1169 15.7232 7.91054C15.724 5.87227 14.9247 3.95562 13.4726 2.51364C12.0207 1.07178 10.0898 0.277297 8.03241 0.276367C3.79347 0.276367 0.343531 3.69838 0.341781 7.90452" fill="url(#paint0_linear_10476_20434)"/>
<path d="M0.066875 7.90177C0.0664375 9.29445 0.433125 10.654 1.13025 11.8524L0 15.9471L4.22319 14.8484C5.38681 15.4779 6.69694 15.8098 8.03006 15.8103H8.0335C12.424 15.8103 15.9981 12.265 16 7.90809C16.0007 5.79659 15.1727 3.81104 13.6687 2.3174C12.1646 0.823938 10.1646 0.000868217 8.0335 0C3.64225 0 0.068625 3.54481 0.066875 7.90177ZM2.58194 11.646L2.42425 11.3976C1.76137 10.3518 1.4115 9.14326 1.412 7.90226C1.41337 4.28087 4.38363 1.33457 8.036 1.33457C9.80475 1.33532 11.467 2.01947 12.7172 3.26078C13.9674 4.5022 14.6554 6.15243 14.6549 7.9076C14.6533 11.529 11.683 14.4757 8.0335 14.4757H8.03088C6.84256 14.475 5.67712 14.1584 4.66075 13.56L4.41888 13.4177L1.91275 14.0696L2.58194 11.646Z" fill="url(#paint1_linear_10476_20434)"/>
<path d="M6.04223 4.5988C5.8931 4.26993 5.73616 4.26329 5.59435 4.25753C5.47823 4.25256 5.34548 4.25294 5.21285 4.25294C5.0801 4.25294 4.86441 4.30249 4.6821 4.50001C4.4996 4.69771 3.98535 5.17548 3.98535 6.1472C3.98535 7.11898 4.69866 8.05808 4.7981 8.18999C4.89766 8.32165 6.17516 10.3796 8.19841 11.1713C9.87991 11.8292 10.2221 11.6983 10.587 11.6653C10.952 11.6325 11.7648 11.1877 11.9306 10.7265C12.0965 10.2653 12.0965 9.87005 12.0468 9.78745C11.997 9.70515 11.8643 9.65573 11.6652 9.557C11.4661 9.45821 10.4875 8.98038 10.305 8.91446C10.1225 8.8486 9.98985 8.81573 9.8571 9.01349C9.72435 9.21095 9.34316 9.65573 9.22698 9.78745C9.11091 9.91948 8.99473 9.93591 8.79573 9.83712C8.59654 9.73802 7.95548 9.52971 7.19491 8.8569C6.60316 8.33337 6.20366 7.68686 6.08754 7.48909C5.97141 7.29163 6.0751 7.1846 6.17491 7.08618C6.26435 6.99768 6.37404 6.85554 6.47366 6.74025C6.57291 6.62491 6.60604 6.54261 6.67241 6.41089C6.73885 6.27904 6.7056 6.1637 6.65591 6.06491C6.60604 5.96611 6.21923 4.98931 6.04223 4.5988Z" fill="white"/>
</g>
<defs>
<linearGradient id="paint0_linear_10476_20434" x1="772.568" y1="1539.78" x2="772.568" y2="0.276367" gradientUnits="userSpaceOnUse">
<stop stop-color="#1FAF38"/>
<stop offset="1" stop-color="#60D669"/>
</linearGradient>
<linearGradient id="paint1_linear_10476_20434" x1="800" y1="1594.71" x2="800" y2="0" gradientUnits="userSpaceOnUse">
<stop stop-color="#F9F9F9"/>
<stop offset="1" stop-color="white"/>
</linearGradient>
<clipPath id="clip0_10476_20434">
<rect width="16" height="16" fill="white"/>
</clipPath>
</defs>
</svg>
