<svg width="16" height="16" viewBox="0 0 16 16" fill="none" xmlns="http://www.w3.org/2000/svg">
<path d="M13.3327 4.66732V11.334C13.3327 14.0007 12.666 14.6673 9.99935 14.6673H5.99935C3.33268 14.6673 2.66602 14.0007 2.66602 11.334V4.66732C2.66602 2.00065 3.33268 1.33398 5.99935 1.33398H9.99935C12.666 1.33398 13.3327 2.00065 13.3327 4.66732Z" stroke="#8F8F8F" stroke-linecap="round" stroke-linejoin="round"/>
<path d="M9.33268 3.66699H6.66602" stroke="#8F8F8F" stroke-linecap="round" stroke-linejoin="round"/>
<path d="M7.99915 12.7337C8.56985 12.7337 9.03249 12.271 9.03249 11.7003C9.03249 11.1296 8.56985 10.667 7.99915 10.667C7.42846 10.667 6.96582 11.1296 6.96582 11.7003C6.96582 12.271 7.42846 12.7337 7.99915 12.7337Z" stroke="#8F8F8F" stroke-linecap="round" stroke-linejoin="round"/>
</svg>
