<svg width="12" height="12" viewBox="0 0 12 12" fill="none" xmlns="http://www.w3.org/2000/svg">
<path d="M9.65047 3.95975V6.53476C9.65047 8.07476 8.77047 8.73474 7.45047 8.73474H3.05547C2.83047 8.73474 2.61547 8.71477 2.41547 8.66977C2.29047 8.64977 2.17047 8.61477 2.06047 8.57477C1.31047 8.29477 0.855469 7.64476 0.855469 6.53476V3.95975C0.855469 2.41975 1.73547 1.75977 3.05547 1.75977H7.45047C8.57047 1.75977 9.37547 2.23476 9.59047 3.31976C9.62547 3.51976 9.65047 3.72475 9.65047 3.95975Z" stroke="#292D32" stroke-miterlimit="10" stroke-linecap="round" stroke-linejoin="round"/>
<path d="M11.151 5.4603V8.03531C11.151 9.57531 10.271 10.2353 8.95102 10.2353H4.55602C4.18602 10.2353 3.85102 10.1853 3.56102 10.0753C2.96602 9.85532 2.56102 9.40032 2.41602 8.67032C2.61602 8.71532 2.83102 8.73529 3.05602 8.73529H7.45102C8.77102 8.73529 9.65102 8.07531 9.65102 6.53531V3.9603C9.65102 3.7253 9.63102 3.51531 9.59102 3.32031C10.541 3.52031 11.151 4.1903 11.151 5.4603Z" stroke="#292D32" stroke-miterlimit="10" stroke-linecap="round" stroke-linejoin="round"/>
<path d="M5.24969 6.5697C5.97871 6.5697 6.5697 5.97871 6.5697 5.24969C6.5697 4.52068 5.97871 3.92969 5.24969 3.92969C4.52068 3.92969 3.92969 4.52068 3.92969 5.24969C3.92969 5.97871 4.52068 6.5697 5.24969 6.5697Z" stroke="#292D32" stroke-miterlimit="10" stroke-linecap="round" stroke-linejoin="round"/>
<path d="M2.39062 4.14941V6.34943" stroke="#292D32" stroke-miterlimit="10" stroke-linecap="round" stroke-linejoin="round"/>
<path d="M8.11133 4.15039V6.3504" stroke="#292D32" stroke-miterlimit="10" stroke-linecap="round" stroke-linejoin="round"/>
</svg>
