<svg width="20" height="20" viewBox="0 0 20 20" fill="none" xmlns="http://www.w3.org/2000/svg">
<path d="M14.1664 10.0003C15.0725 10.0002 15.9539 9.70466 16.6769 9.15855C17.4 8.61245 17.9253 7.84553 18.1733 6.97402C18.4213 6.10251 18.3784 5.17391 18.0512 4.32896C17.724 3.484 17.1302 2.76874 16.3599 2.29157C15.5896 1.8144 14.6848 1.60133 13.7825 1.68465C12.8803 1.76797 12.0298 2.14315 11.3599 2.75331C10.69 3.36348 10.2373 4.17538 10.0704 5.06597C9.90341 5.95657 10.0313 6.87731 10.4347 7.68866C10.511 7.83598 10.5308 8.00608 10.4906 8.167L10.2422 9.0945C10.2176 9.18633 10.2177 9.28301 10.2423 9.37484C10.2669 9.46666 10.3152 9.55039 10.3825 9.61761C10.4497 9.68483 10.5334 9.73318 10.6252 9.75779C10.717 9.78241 10.8137 9.78242 10.9056 9.75783L11.8331 9.5095C11.994 9.46921 12.1641 9.48907 12.3114 9.56533C12.8876 9.85223 13.5227 10.0012 14.1664 10.0003Z" stroke="#292D32"/>
<path d="M6.69838 6.09685L7.23921 7.06602C7.72671 7.94102 7.53088 9.08769 6.76254 9.85685C6.76254 9.85685 5.82921 10.7894 7.52088 12.4802C9.21004 14.1694 10.1434 13.2385 10.1434 13.2385C10.9125 12.4694 12.06 12.2735 12.9342 12.761L13.9034 13.3027C15.2242 14.0394 15.38 15.891 14.2192 17.0527C13.5217 17.7494 12.6667 18.2927 11.7225 18.3277C10.1325 18.3885 7.43171 17.986 4.72254 15.2777C2.01421 12.5685 1.61171 9.86769 1.67254 8.27769C1.70838 7.33352 2.25088 6.47852 2.94754 5.78102C4.10921 4.62019 5.96088 4.77602 6.69754 6.09769L6.69838 6.09685Z" stroke="#292D32" stroke-linecap="round"/>
</svg>
