<svg width="20" height="20" viewBox="0 0 20 20" fill="none" xmlns="http://www.w3.org/2000/svg">
<path d="M15.033 11.2923C14.683 11.634 14.483 12.1256 14.533 12.6506C14.608 13.5506 15.433 14.209 16.333 14.209H17.9163V15.2006C17.9163 16.9256 16.508 18.334 14.783 18.334H6.35801C6.61635 18.1173 6.84134 17.8506 7.01634 17.5506C7.32467 17.0506 7.49967 16.459 7.49967 15.834C7.49967 13.9923 6.00801 12.5007 4.16634 12.5007C3.38301 12.5007 2.65801 12.7757 2.08301 13.234V9.59233C2.08301 7.86733 3.49134 6.45898 5.21634 6.45898H14.783C16.508 6.45898 17.9163 7.86733 17.9163 9.59233V10.7923H16.233C15.7663 10.7923 15.3413 10.9756 15.033 11.2923Z" stroke="#292D32" stroke-linecap="round" stroke-linejoin="round"/>
<path d="M2.08301 10.3421V6.53379C2.08301 5.54212 2.69134 4.65875 3.61634 4.30875L10.233 1.80875C11.2663 1.41708 12.3747 2.18377 12.3747 3.29211V6.45876" stroke="#292D32" stroke-linecap="round" stroke-linejoin="round"/>
<path d="M18.7987 11.642V13.3587C18.7987 13.817 18.432 14.192 17.9653 14.2086H16.332C15.432 14.2086 14.607 13.5503 14.532 12.6503C14.482 12.1253 14.682 11.6336 15.032 11.292C15.3403 10.9753 15.7653 10.792 16.232 10.792H17.9653C18.432 10.8087 18.7987 11.1836 18.7987 11.642Z" stroke="#292D32" stroke-linecap="round" stroke-linejoin="round"/>
<path d="M5.83301 10H11.6663" stroke="#292D32" stroke-linecap="round" stroke-linejoin="round"/>
<path d="M7.49967 15.8333C7.49967 16.4583 7.32467 17.05 7.01634 17.55C6.84134 17.85 6.61635 18.1167 6.35801 18.3333C5.77468 18.8583 5.00801 19.1667 4.16634 19.1667C2.94967 19.1667 1.89134 18.5167 1.31634 17.55C1.00801 17.05 0.833008 16.4583 0.833008 15.8333C0.833008 14.7833 1.31634 13.8417 2.08301 13.2333C2.65801 12.775 3.38301 12.5 4.16634 12.5C6.00801 12.5 7.49967 13.9917 7.49967 15.8333Z" stroke="#292D32" stroke-miterlimit="10" stroke-linecap="round" stroke-linejoin="round"/>
<path d="M2.86719 15.8333L3.69218 16.6582L5.46718 15.0166" stroke="#292D32" stroke-linecap="round" stroke-linejoin="round"/>
</svg>
