<svg width="10" height="12" viewBox="0 0 10 12" fill="none" xmlns="http://www.w3.org/2000/svg">
<path fill-rule="evenodd" clip-rule="evenodd" d="M6.39216 6.19454C6.31171 5.96705 6.16271 5.77009 5.96568 5.63078C5.76866 5.49148 5.53329 5.41667 5.29199 5.41667V5.125H4.70866V5.41667C4.39924 5.41667 4.10249 5.53958 3.8837 5.75838C3.66491 5.97717 3.54199 6.27391 3.54199 6.58333C3.54199 6.89275 3.66491 7.1895 3.8837 7.40829C4.10249 7.62708 4.39924 7.75 4.70866 7.75V8.91667C4.45491 8.91667 4.23878 8.75479 4.15828 8.52787C4.14634 8.49075 4.12707 8.4564 4.10162 8.42685C4.07617 8.3973 4.04505 8.37316 4.01011 8.35584C3.97516 8.33853 3.9371 8.3284 3.89817 8.32606C3.85924 8.32371 3.82024 8.3292 3.78347 8.34219C3.7467 8.35518 3.7129 8.37542 3.68409 8.4017C3.65528 8.42798 3.63202 8.45977 3.61571 8.49519C3.5994 8.53061 3.59035 8.56895 3.58911 8.60793C3.58787 8.64691 3.59446 8.68574 3.60849 8.72212C3.68895 8.94962 3.83794 9.14658 4.03497 9.28588C4.23199 9.42519 4.46736 9.5 4.70866 9.5V9.79167H5.29199V9.5C5.60141 9.5 5.89816 9.37708 6.11695 9.15829C6.33574 8.9395 6.45866 8.64275 6.45866 8.33333C6.45866 8.02391 6.33574 7.72717 6.11695 7.50838C5.89816 7.28958 5.60141 7.16667 5.29199 7.16667V6C5.41263 5.99997 5.53031 6.03734 5.62882 6.10697C5.72734 6.1766 5.80184 6.27506 5.84208 6.38879C5.86783 6.46174 5.92152 6.52146 5.99131 6.55483C6.02587 6.57135 6.06334 6.5809 6.1016 6.58294C6.13985 6.58498 6.17812 6.57946 6.21424 6.56671C6.25036 6.55395 6.28361 6.53421 6.3121 6.5086C6.34059 6.483 6.36376 6.45203 6.38028 6.41747C6.3968 6.38291 6.40635 6.34544 6.40839 6.30719C6.41043 6.26894 6.40491 6.23066 6.39216 6.19454ZM4.70866 6C4.55395 6 4.40558 6.06146 4.29618 6.17085C4.18678 6.28025 4.12533 6.42862 4.12533 6.58333C4.12533 6.73804 4.18678 6.88642 4.29618 6.99581C4.40558 7.10521 4.55395 7.16667 4.70866 7.16667V6ZM5.29199 8.91667C5.4467 8.91667 5.59507 8.85521 5.70447 8.74581C5.81387 8.63642 5.87533 8.48804 5.87533 8.33333C5.87533 8.17862 5.81387 8.03025 5.70447 7.92085C5.59507 7.81146 5.4467 7.75 5.29199 7.75V8.91667Z" fill="#8F8F8F"/>
<path fill-rule="evenodd" clip-rule="evenodd" d="M1.83661 1.51446C2.55236 1.16417 3.72661 0.75 5.01169 0.75C6.26994 0.75 7.41328 1.14696 8.12524 1.49258L8.16549 1.51212C8.38015 1.61829 8.5534 1.71863 8.67532 1.8L7.5979 3.375C10.0817 5.91425 12.0003 11.2491 5.01169 11.2491C-1.97693 11.2491 -0.109972 6.01108 2.39544 3.375L1.32503 1.8C1.40757 1.74604 1.51228 1.68333 1.63711 1.61683C1.69894 1.58358 1.76544 1.54917 1.83661 1.51446ZM6.90549 3.35429L7.76794 2.09342C6.96586 2.15117 6.01153 2.33958 5.09278 2.60558C4.43653 2.79517 3.70736 2.76629 3.03215 2.64175C2.862 2.61021 2.69302 2.57265 2.52553 2.52917L3.08553 3.35371C4.28574 3.781 5.70499 3.781 6.90549 3.35429ZM2.74865 3.85042C4.15303 4.39292 5.8409 4.39292 7.24528 3.84983C7.83149 4.46779 8.32187 5.17003 8.70011 5.93321C9.09445 6.73762 9.30911 7.54175 9.27411 8.23475C9.24028 8.90354 8.97719 9.47492 8.37636 9.89958C7.75015 10.342 6.69694 10.6658 5.0114 10.6658C3.32411 10.6658 2.26594 10.3476 1.6339 9.91008C1.02869 9.49096 0.762987 8.92717 0.725362 8.26742C0.685987 7.582 0.895986 6.78196 1.28886 5.972C1.66365 5.19967 2.18661 4.45621 2.74865 3.85042ZM2.41324 1.89217C2.64657 1.96158 2.8904 2.02196 3.13774 2.06775C3.76482 2.18325 4.39365 2.20017 4.93032 2.04471C5.55572 1.86252 6.19179 1.71923 6.8349 1.61567C6.29824 1.45408 5.67057 1.33333 5.0114 1.33333C4.00661 1.33333 3.06949 1.61363 2.41324 1.89217Z" fill="#8F8F8F"/>
</svg>
